<svg width="120" height="120" viewBox="0 0 120 120" 
  xmlns="http://www.w3.org/2000/svg" 
  xmlns:xlink="http://www.w3.org/1999/xlink" overflow="hidden">
  <defs></defs>
  <g>
    <circle cx="60" cy="60" r="60" fill="rgba(255, 255, 255, 0.)"/>
    <g>
      <g>
        <path d="M53.86 45.66 53.86 63.83 53.3 63.83 43.13 53.25C35.94 45.74 38.21 31.45 51.85 31.45L73.09 31.45C82.38 31.45 82.38 45.66 73.09 45.66L53.86 45.66ZM46.28 87.89C54.44 88.05 59.84 87.89 68 87.89 80.19 87.89 85.2 71.58 75.75 63.67L66.63 56.24 66.06 56.24 66.06 73.84 46.28 73.84C36.91 73.84 36.91 87.89 46.28 87.89" fill="#231F20"/>
        <path d="M83.95 56.13C83.95 46.93 98.08 46.93 98.08 56.05L98.08 81.67C98.08 90.88 83.95 90.8 83.95 81.67L83.95 56.13ZM98.07 38.52C98.07 42.42 94.91 45.58 91.01 45.58 87.11 45.58 83.94 42.42 83.94 38.52 83.94 34.62 87.1 31.45 91.01 31.45 94.91 31.45 98.07 34.61 98.07 38.52" fill="#231F20"/>
        <path d="M21.93 56.13C21.93 46.93 36.06 46.93 36.06 56.05L36.06 81.67C36.06 90.88 21.93 90.8 21.93 81.67L21.93 56.13ZM36.05 38.52C36.05 42.42 32.89 45.58 28.99 45.58 25.09 45.58 21.92 42.42 21.92 38.52 21.92 34.62 25.08 31.45 28.99 31.45 32.89 31.45 36.05 34.61 36.05 38.52" fill="#231F20"/>
      </g>
    </g>
  </g>
</svg>